<svg version="1.1" id="Layer_1" xmlns="http://www.w3.org/2000/svg" xmlns:xlink="http://www.w3.org/1999/xlink" x="0px" y="0px"
	 width="100%" viewBox="0 0 750 750" enable-background="new 0 0 750 750" xml:space="preserve">
<path fill="#000000" opacity="1.000000" stroke="none" 
	d="
M751.000000,274.000000 
	C751.000000,431.833344 750.984436,589.166687 751.093933,746.499939 
	C751.096558,750.249329 750.249146,751.094910 746.499939,751.093323 
	C499.500000,750.990051 252.500000,750.990112 5.500039,751.093384 
	C1.750823,751.094971 0.905072,750.249146 0.906640,746.499939 
	C1.009921,499.500000 1.009921,252.500000 0.906640,5.500039 
	C0.905072,1.750824 1.750823,0.905071 5.500039,0.906639 
	C252.500000,1.009927 499.500000,1.009927 746.499939,0.906639 
	C750.249146,0.905071 751.100220,1.750208 751.095093,5.500130 
	C750.972778,94.833298 751.000000,184.166672 751.000000,274.000000 
z"/>
<path fill="#EE79AE" opacity="1.000000" stroke="none" 
	d="
M356.226379,712.561157 
	C343.007629,713.216125 330.233063,711.013733 317.558136,708.777832 
	C285.795410,703.174561 255.371536,693.230835 226.409592,678.938477 
	C187.726074,659.848694 153.889725,634.231323 125.067314,602.242859 
	C84.485260,557.202942 58.109295,504.721985 45.253227,445.507782 
	C42.776920,434.101990 40.868797,422.545898 40.092739,410.430481 
	C42.348083,408.643494 43.266808,410.451691 44.009293,411.793732 
	C45.902966,415.216522 48.746407,417.770782 51.438824,420.470734 
	C78.665649,447.773987 106.031403,474.938538 133.158585,502.341064 
	C134.016464,503.207642 134.794144,503.959808 136.388184,504.151672 
	C138.751694,505.329254 139.861389,507.198120 140.929474,509.082611 
	C166.062668,553.426270 201.036819,587.904846 245.319611,612.983093 
	C253.272339,617.486877 261.474792,621.560425 269.935455,625.073059 
	C272.220398,626.021606 274.701416,626.666199 276.507904,629.081665 
	C278.685638,635.004700 283.598785,638.231506 287.495392,642.195374 
	C299.858917,654.772156 312.303009,667.275940 324.889160,679.629211 
	C334.619232,689.179260 343.677856,699.426819 354.205933,708.158325 
	C355.488953,709.222473 356.837708,710.295593 356.226379,712.561157 
z"/>
<path fill="#EC95E8" opacity="1.000000" stroke="none" 
	d="
M703.762939,297.711304 
	C707.021118,306.831757 708.653076,316.224213 709.834534,325.572540 
	C712.328796,345.308258 714.923523,365.088043 713.965149,385.085022 
	C713.901489,386.413391 713.909546,387.745178 713.780396,389.533203 
	C711.022583,392.041565 709.325623,389.986664 707.724365,388.425018 
	C694.294922,375.327759 681.235229,361.856659 667.824158,348.742767 
	C659.885864,340.980408 652.739075,332.373199 643.439392,325.501282 
	C639.584473,317.984528 638.828064,309.905212 636.524231,302.271851 
	C613.201904,224.995987 565.135498,168.625885 493.094055,132.719131 
	C473.365387,122.886017 452.375397,116.224602 430.698792,111.917282 
	C427.772034,111.335716 424.746704,111.049316 421.801331,109.246277 
	C399.139557,87.993172 377.979797,65.740639 356.061554,44.254333 
	C354.779846,42.997875 353.150330,41.914665 353.777954,39.442116 
	C366.004364,36.991203 378.169189,37.516064 390.163422,38.215977 
	C410.812805,39.420956 431.479614,41.225147 451.545929,46.902946 
	C452.794891,47.256344 454.143372,47.258080 455.699066,47.721260 
	C456.203979,51.703941 458.832153,53.878941 461.179138,56.226143 
	C504.609833,99.661118 548.043396,143.093277 591.476135,186.526154 
	C626.316589,221.366592 661.153687,256.210327 696.004761,291.040161 
	C698.347412,293.381348 700.565247,295.875793 703.762939,297.711304 
z"/>
<path fill="#EC97ED" opacity="1.000000" stroke="none" 
	d="
M704.126465,297.364807 
	C703.061707,299.137177 701.858704,299.058807 700.669861,298.045715 
	C699.658630,297.183990 698.728760,296.224304 697.787598,295.283234 
	C617.741089,215.241302 537.689697,135.204315 457.703156,55.102528 
	C456.021637,53.418571 452.119110,51.978062 455.669281,48.196159 
	C460.773682,47.993977 465.245178,49.844345 469.657318,51.252613 
	C490.008362,57.748310 510.207153,64.713097 529.207764,74.685432 
	C553.770264,87.576866 576.749084,102.718079 597.676392,121.054642 
	C632.455811,151.528503 660.095581,187.363144 680.292847,228.938370 
	C690.350525,249.641647 697.900208,271.273682 703.806702,293.494293 
	C704.100586,294.600006 704.041504,295.799591 704.126465,297.364807 
z"/>
<path fill="#ED88CD" opacity="1.000000" stroke="none" 
	d="
M647.623901,575.693115 
	C642.265442,585.283691 634.963013,593.227722 627.833740,601.228821 
	C617.014282,613.371399 605.041382,624.391113 592.417358,635.148010 
	C584.741516,630.837097 579.541870,624.059082 573.519897,618.206787 
	C561.774780,606.792480 550.480774,594.918518 538.365234,583.360107 
	C537.824097,582.481934 537.530518,581.871826 537.448425,581.212158 
	C535.764465,567.677368 527.418701,560.920410 514.590515,558.711426 
	C513.934143,558.598389 513.302673,558.393494 512.353577,557.986511 
	C494.251160,537.974548 474.602142,519.974304 456.017914,500.926056 
	C452.649048,497.473022 449.301849,493.992645 445.778809,490.685791 
	C443.577423,488.619446 441.816711,486.186737 441.009369,482.799866 
	C441.202759,480.399994 442.561096,479.131226 444.087341,478.100739 
	C449.761963,474.269348 454.930878,469.798523 460.267639,465.536041 
	C464.403961,462.232330 465.853821,462.420624 469.272339,466.811127 
	C480.856537,481.689148 494.778595,493.495239 512.559143,500.391907 
	C531.080139,507.575836 550.047852,509.095459 569.486633,505.155182 
	C571.600769,504.726654 573.667480,503.965057 576.248901,504.304199 
	C596.523621,527.046875 618.948853,547.238342 639.850647,568.922607 
	C642.181946,571.341187 645.032532,573.090820 647.623901,575.693115 
z"/>
<path fill="#ED8DD7" opacity="1.000000" stroke="none" 
	d="
M647.968994,575.675903 
	C645.104675,576.025635 643.116211,574.624268 641.298035,572.804871 
	C620.733643,552.225647 600.162415,531.653320 579.578674,511.093414 
	C578.135132,509.651520 576.763733,508.229797 577.009827,505.601715 
	C577.663757,502.950104 579.744202,502.496155 581.564392,501.768860 
	C607.874817,491.256256 627.104126,473.445953 638.091919,447.085052 
	C639.039856,444.810852 639.794617,442.348877 642.298706,440.666687 
	C648.350281,442.088196 651.272156,447.131195 655.081726,450.878815 
	C666.463928,462.076019 677.747498,473.379211 688.996338,484.714020 
	C690.417603,486.146179 692.384827,486.845673 693.882385,488.688782 
	C689.297119,504.624725 682.231934,519.237000 674.799805,533.689697 
	C667.224792,548.420410 658.179260,562.212036 647.968994,575.675903 
z"/>
<path fill="#ED7DB7" opacity="1.000000" stroke="none" 
	d="
M356.427887,712.907776 
	C355.851990,711.350037 354.820435,710.613831 353.700897,709.794373 
	C344.848969,703.315063 337.866577,694.870178 330.133057,687.215271 
	C324.041382,681.185425 318.033386,675.071228 311.980957,669.001770 
	C304.639313,661.639465 297.304474,654.270203 289.937653,646.933105 
	C286.436310,643.445923 282.777618,640.112244 279.368011,636.539307 
	C277.706177,634.797913 274.586334,633.709656 276.065979,630.055847 
	C278.953125,627.877075 281.492432,629.389648 283.876587,630.266174 
	C300.280273,636.296753 317.174255,640.428101 334.366913,643.360168 
	C342.858276,644.808289 351.399689,645.861389 360.055603,646.015808 
	C368.999420,646.175354 377.910370,647.421875 386.883911,646.945923 
	C391.993195,646.674866 397.058990,645.178406 402.606262,646.506836 
	C406.454193,648.784119 408.301056,652.467773 411.142059,655.240417 
	C425.977966,669.719482 440.355896,684.661987 455.283020,699.051392 
	C456.470886,700.196533 457.814117,701.283264 457.229614,703.525146 
	C424.079041,711.877441 390.778320,715.841309 356.427887,712.907776 
z"/>
<path fill="#EC91E1" opacity="1.000000" stroke="none" 
	d="
M694.354370,488.814026 
	C686.596619,488.129333 683.703308,481.315979 678.916626,477.092590 
	C671.797119,470.810852 665.327576,463.789001 658.627625,457.036255 
	C653.409973,451.777435 648.262817,446.448730 642.906860,440.826477 
	C641.273315,438.723236 641.623230,436.642090 642.166748,434.780334 
	C645.083374,424.789520 645.162292,414.417297 645.650696,404.219666 
	C646.133789,394.131165 647.251160,384.023773 646.869873,373.914398 
	C646.364258,360.507965 645.467041,347.117859 643.260681,333.848511 
	C642.810547,331.141663 641.705627,328.318695 643.731567,325.298553 
	C651.440552,327.134094 655.104065,333.780334 660.154907,338.595184 
	C673.203857,351.034271 685.761475,363.989105 698.505798,376.747528 
	C701.892212,380.137665 705.257629,383.549133 708.605164,386.977722 
	C709.871399,388.274597 710.906189,389.872467 713.331421,389.973694 
	C712.174255,423.797272 705.674316,456.640381 694.354370,488.814026 
z"/>
<path fill="#EC91E0" opacity="1.000000" stroke="none" 
	d="
M353.553101,39.089134 
	C356.175476,43.161766 360.015015,45.643799 363.075684,48.784668 
	C378.583344,64.698547 394.397278,80.314217 410.128632,96.009613 
	C413.993073,99.865280 417.950256,103.628044 421.930450,107.768051 
	C420.353973,110.000305 418.152863,109.993279 416.014374,109.597092 
	C400.908203,106.798470 385.652710,106.998665 370.382080,107.002502 
	C351.869568,107.007164 333.735992,110.023422 315.610962,113.251190 
	C314.463196,113.455582 313.328430,113.683670 311.743866,113.625580 
	C309.387909,113.308029 308.119171,112.026794 306.815735,110.697441 
	C292.397858,95.992531 277.826874,81.440178 263.166443,66.977036 
	C260.883453,64.724770 258.495544,62.447121 260.777954,58.487591 
	C280.959747,50.926933 301.450378,45.539864 322.385773,42.223969 
	C332.516693,40.619366 342.729492,38.765190 353.553101,39.089134 
z"/>
<path fill="#EE7CB5" opacity="1.000000" stroke="none" 
	d="
M136.365967,504.340210 
	C134.186188,506.828644 133.196991,504.639130 132.198257,503.642670 
	C103.157288,474.667633 74.182503,445.626190 45.089432,416.703674 
	C43.123497,414.749268 43.331963,411.617859 40.490044,410.091858 
	C37.998711,392.535370 37.363998,375.077301 38.747150,357.471069 
	C39.444729,348.591644 40.204758,339.718689 41.122025,330.424011 
	C43.412743,328.198395 44.937996,329.673004 46.311081,331.171143 
	C59.122955,345.149597 72.959862,358.119354 86.237328,371.639130 
	C92.388390,377.902466 98.262123,384.547974 105.742531,389.985046 
	C107.983810,397.385071 107.830055,404.757568 108.768608,411.983826 
	C112.593399,441.432465 120.563026,469.581177 134.211365,496.041962 
	C135.484879,498.510986 137.184784,500.932007 136.365967,504.340210 
z"/>
<path fill="#ED8DD7" opacity="1.000000" stroke="none" 
	d="
M260.640167,58.233521 
	C261.044983,60.166611 260.717804,62.209885 262.355072,63.823132 
	C268.695709,70.070694 275.030121,76.324638 281.343842,82.599380 
	C285.421814,86.652184 289.466431,90.738663 293.513550,94.822357 
	C297.114685,98.456024 300.490173,102.351677 304.371429,105.654404 
	C306.567627,107.523232 308.251190,109.659378 310.255768,112.086502 
	C309.906708,114.593178 307.872284,115.103165 305.989716,115.636833 
	C281.473969,122.586418 258.049225,132.058929 236.361115,145.580307 
	C235.085205,146.375778 233.708679,146.946671 231.787720,146.959198 
	C229.357681,146.449112 227.982986,144.972244 226.581131,143.574844 
	C213.910126,130.944397 201.238129,118.314713 188.646103,105.605690 
	C186.486557,103.426079 183.730377,101.291969 185.762848,97.200127 
	C200.441895,86.363274 216.019211,77.689980 232.209488,70.150070 
	C241.412506,65.864174 250.910782,62.212307 260.640167,58.233521 
z"/>
<path fill="#ED81BF" opacity="1.000000" stroke="none" 
	d="
M457.393463,703.848938 
	C456.349487,700.649048 453.193176,699.847717 451.276398,697.900940 
	C436.725281,683.122009 422.001862,668.512756 407.349884,653.833008 
	C405.853821,652.334106 403.948853,651.049194 404.002258,648.170776 
	C405.040375,645.387817 407.284668,645.302917 409.416901,645.010803 
	C434.186523,641.617493 458.128967,635.150818 481.260712,625.673828 
	C482.951660,624.981079 484.628143,624.251709 486.889374,624.268188 
	C490.558563,625.879211 492.074799,629.223022 494.529633,631.635803 
	C506.585693,643.485352 518.501831,655.477844 530.418579,667.468323 
	C532.129578,669.189941 534.326294,670.675293 534.226440,673.837830 
	C518.454285,683.429077 501.634430,689.983154 484.559021,695.871094 
	C475.758606,698.905701 466.716064,701.238220 457.393463,703.848938 
z"/>
<path fill="#ED89CF" opacity="1.000000" stroke="none" 
	d="
M185.622543,96.988983 
	C185.570221,99.874168 187.244064,101.801811 189.204056,103.748291 
	C201.797699,116.255096 214.333618,128.820114 226.867706,141.386749 
	C228.267136,142.789825 229.535706,144.323410 231.013672,146.126526 
	C231.236603,148.422592 229.844406,149.448425 228.480576,150.373123 
	C209.998856,162.904205 192.670303,176.830505 176.994553,192.767838 
	C176.647598,193.120590 176.198837,193.366745 175.447021,193.798798 
	C171.971390,195.022751 169.608078,193.530273 167.527679,191.478073 
	C155.354797,179.470032 143.251923,167.391220 131.260712,155.201675 
	C128.518799,152.414429 126.767159,149.334335 129.763077,145.204071 
	C146.508667,126.764626 164.869751,110.736160 185.622543,96.988983 
z"/>
<path fill="#ED85C6" opacity="1.000000" stroke="none" 
	d="
M534.425537,674.100586 
	C528.320679,667.062378 521.405273,661.099365 515.050232,654.594666 
	C507.180359,646.539368 499.135376,638.655457 491.191589,630.672058 
	C489.817902,629.291504 488.044769,628.127136 488.017822,625.483887 
	C488.487823,622.137207 491.132446,621.431396 493.283081,620.393066 
	C503.296265,615.558533 512.877625,609.978699 522.391968,604.238098 
	C529.650696,599.858337 535.311829,594.458069 537.158569,585.845703 
	C537.367310,584.872375 537.828064,583.973694 538.927734,583.134033 
	C543.351440,584.762024 546.084290,588.233948 549.086731,591.216980 
	C562.707336,604.749573 575.860840,618.752991 590.066040,631.694641 
	C590.944031,632.494507 591.710327,633.337280 592.024658,634.897156 
	C578.190247,647.950500 562.399536,657.994385 546.407898,667.740234 
	C542.650269,670.030396 538.666748,671.950073 534.425537,674.100586 
z"/>
<path fill="#ED7FBB" opacity="1.000000" stroke="none" 
	d="
M105.085976,389.778748 
	C98.749153,388.950836 96.252327,383.466217 92.179031,380.061310 
	C87.391716,376.059570 83.268478,371.269745 78.787178,366.893433 
	C75.484512,363.668091 72.147034,360.409729 69.014404,357.090485 
	C61.988659,349.646179 54.492580,342.683746 47.381924,335.335266 
	C45.642487,333.537659 45.353168,330.081207 41.565170,330.013000 
	C43.723560,311.933075 47.646828,294.180756 52.991985,276.743011 
	C53.748966,274.273438 54.505341,271.803711 55.590828,269.149048 
	C57.562416,268.256104 58.383080,269.516479 59.237858,270.453064 
	C75.726952,288.520020 93.403488,305.406464 111.044800,322.854889 
	C111.452209,330.252716 109.107040,336.940521 108.638260,343.882080 
	C108.181770,350.641663 106.775146,357.349304 107.100441,364.153595 
	C107.424240,370.926727 105.671555,377.660126 106.922302,384.451843 
	C107.251312,386.238373 106.810966,388.097748 105.085976,389.778748 
z"/>
<path fill="#ED85C8" opacity="1.000000" stroke="none" 
	d="
M129.644226,145.017517 
	C128.534561,149.104691 130.354080,152.017365 133.344055,154.944839 
	C145.107407,166.462234 156.680054,178.174469 168.315887,189.821991 
	C169.964996,191.472748 171.487503,193.321960 174.572021,192.996689 
	C176.021881,195.488922 174.360107,197.172516 172.999817,198.732391 
	C161.833588,211.536957 152.023331,225.306259 143.364624,239.911255 
	C142.516083,241.342560 141.552368,242.705109 139.642059,243.591202 
	C136.620911,243.856796 135.059006,241.984756 133.431305,240.365280 
	C120.574471,227.573181 107.743866,214.754608 94.956573,201.892929 
	C93.195686,200.121780 91.427429,198.324356 90.971451,195.323639 
	C101.859962,176.930008 114.821068,160.441422 129.644226,145.017517 
z"/>
<path fill="#ED81BF" opacity="1.000000" stroke="none" 
	d="
M110.199844,321.814423 
	C107.554817,322.216980 106.208519,320.718048 104.791138,319.299255 
	C90.389305,304.883179 75.947968,290.506348 61.603264,276.033691 
	C59.643394,274.056305 58.151489,271.615112 56.181282,269.176331 
	C58.447975,258.226959 63.216934,248.325378 67.414932,238.213150 
	C68.653900,235.228699 70.059326,232.313339 71.689468,229.171844 
	C74.911964,229.775024 75.509407,232.764389 77.299881,234.630814 
	C90.381721,248.267563 103.952744,261.417053 117.260986,274.828033 
	C118.791771,276.370667 120.948807,277.070984 122.623245,279.015411 
	C123.466896,281.009338 123.121071,282.636078 122.570267,284.225861 
	C118.864319,294.922302 115.262070,305.646545 112.919769,316.750214 
	C112.543671,318.533081 111.952660,320.296631 110.199844,321.814423 
z"/>
<path fill="#ED83C3" opacity="1.000000" stroke="none" 
	d="
M122.643478,279.045776 
	C119.638260,278.997223 117.672974,277.862366 115.777084,275.949341 
	C102.899033,262.955139 89.846146,250.134216 76.969170,237.138992 
	C74.904984,235.055847 73.031136,232.630310 72.136307,229.298096 
	C76.863487,217.079117 83.967201,206.392334 90.600716,195.125992 
	C105.452805,209.658951 119.990166,224.351715 134.543488,239.028641 
	C135.822052,240.318039 137.205292,241.503647 138.843689,242.894043 
	C140.283554,245.288528 139.396240,247.345474 138.236206,249.126358 
	C132.788116,257.489868 129.094208,266.687561 125.262260,275.825958 
	C124.751030,277.045166 124.248230,278.281555 122.643478,279.045776 
z"/>
<path fill="#020202" opacity="1.000000" stroke="none" 
	d="
M122.219162,279.467834 
	C126.513107,266.675262 132.719864,255.190552 139.094818,243.405670 
	C146.903275,230.928604 154.340027,218.586639 163.500992,207.427658 
	C167.287598,202.815201 171.148361,198.263580 174.962128,193.341324 
	C191.318527,174.951141 210.549469,160.370407 230.950134,146.703156 
	C254.980057,131.654099 280.382507,120.500793 307.504883,113.310753 
	C308.306610,113.098221 309.125610,112.950844 310.250305,112.534760 
	C331.098572,107.789322 351.845642,105.133698 372.890594,104.723663 
	C389.091858,104.407997 405.158112,105.574997 421.565369,108.146141 
	C438.077972,111.470528 454.002167,115.353149 469.497070,120.960800 
	C515.786987,137.713287 554.444946,165.298492 585.978455,202.922256 
	C615.678772,238.358810 634.179443,279.209625 643.920105,324.632538 
	C645.340576,334.694794 646.954468,344.361450 647.793579,354.094849 
	C649.797974,377.346558 648.293640,400.554840 646.179138,423.730103 
	C645.679749,429.203369 644.205750,434.480865 642.747681,440.130981 
	C635.818665,459.480774 625.191833,475.834717 609.108276,488.390106 
	C599.623413,495.794250 589.091248,501.155029 577.359497,505.086731 
	C550.634644,512.596191 525.297424,509.990082 501.101715,497.155304 
	C487.327637,489.848816 476.145599,479.544983 467.090057,466.893677 
	C466.510529,466.084045 465.980347,465.237732 465.373688,464.449677 
	C465.187836,464.208282 464.823059,464.104614 464.392212,463.850586 
	C457.416046,470.746277 449.785889,476.898102 441.108948,482.301727 
	C440.437469,485.033142 438.456116,486.069458 436.567993,487.087646 
	C420.091248,495.972778 402.565338,501.293610 383.804504,501.948578 
	C377.014313,502.185638 370.183716,502.427917 362.989166,501.608856 
	C306.876495,495.042389 262.720184,453.235413 252.891769,397.696442 
	C252.515518,395.570282 252.039276,393.461182 251.619690,390.934845 
	C248.745789,359.732819 255.302185,331.301697 273.257812,305.374329 
	C287.241730,285.398529 305.160858,270.830292 327.126678,261.216522 
	C330.013672,259.952942 333.036255,259.016388 336.214111,257.411102 
	C367.605103,247.586380 398.076813,248.524796 428.235229,262.264160 
	C436.850433,265.690613 444.072968,270.722595 451.302460,275.730133 
	C453.114807,276.985443 454.141052,277.422058 455.266388,274.748138 
	C463.157349,255.998550 480.044006,251.075272 496.936432,262.451660 
	C497.486359,262.821991 497.990601,263.258301 498.870361,263.852295 
	C499.627991,264.423309 500.006409,264.821228 500.572510,265.625519 
	C505.539337,272.159790 507.517273,279.003174 507.147430,286.883636 
	C506.246643,306.076080 505.593811,325.278625 503.828186,344.845093 
	C503.381134,362.709106 502.742432,380.138885 501.261261,397.532745 
	C499.932068,413.141663 501.105988,427.990143 511.936096,440.821808 
	C529.434937,461.554657 560.447571,463.716919 580.418213,445.169556 
	C584.719727,441.174591 588.334595,436.666901 591.081482,431.013123 
	C595.531067,418.374573 595.255432,405.588989 596.124817,392.879883 
	C596.805054,382.936188 596.713440,373.013458 597.061646,362.673462 
	C594.531067,331.208771 586.382019,301.806366 572.024597,274.031189 
	C559.765869,250.315964 543.390503,229.923279 523.708740,212.166580 
	C498.185242,189.139526 468.752228,172.988464 435.510376,164.016571 
	C421.184479,160.150070 406.610687,157.536407 391.368866,156.593719 
	C376.192535,154.977478 361.570190,156.840683 346.934052,158.437378 
	C341.503296,159.029831 336.214233,160.486145 330.375153,161.089096 
	C307.286530,165.920975 285.926544,174.132401 265.550110,185.933075 
	C242.567322,199.306564 222.664368,215.744858 206.071594,236.609070 
	C188.915070,257.739136 175.496323,280.500336 167.656219,306.762695 
	C161.446045,324.064087 158.307358,341.568909 156.887756,359.491608 
	C156.047745,370.097015 155.683014,380.643158 156.574295,391.640137 
	C160.752777,446.536438 181.817932,493.350128 220.381653,532.176086 
	C257.524200,569.571167 302.567932,590.427795 354.787872,596.135864 
	C356.948639,596.372009 358.901398,597.545288 361.522552,597.190552 
	C367.386566,596.781372 372.860352,596.872314 378.324127,596.981140 
	C399.907074,597.411011 420.802185,593.406677 441.404236,587.424438 
	C442.202209,587.192749 443.004730,587.000732 444.215057,586.755188 
	C460.041626,581.336731 475.149506,575.312317 489.021515,566.530396 
	C493.376343,563.773438 497.796417,561.103516 502.339935,558.665161 
	C505.115753,557.175415 507.969513,555.649841 511.682251,557.041626 
	C528.379700,557.642822 538.290955,566.785095 539.203186,582.570435 
	C538.290466,592.192566 533.916992,599.013367 525.992432,604.068054 
	C513.943176,611.753479 501.323456,618.325317 488.292908,624.920044 
	C467.561554,633.573303 446.672272,640.579407 424.825287,644.399353 
	C418.144409,645.567505 411.406555,646.409912 404.342957,647.598389 
	C383.248260,649.438660 362.527405,649.116028 341.888641,646.532166 
	C319.591095,643.740601 298.033569,637.899963 276.687866,629.871765 
	C262.549316,623.663879 248.751694,617.529419 235.861572,609.580872 
	C193.583939,583.510803 160.303223,548.904480 136.431000,504.892090 
	C131.030899,493.264740 125.210106,482.155121 120.898827,470.380737 
	C111.497482,444.705109 106.448517,418.146545 104.792068,390.442139 
	C104.240814,371.088593 104.846649,352.239990 107.930344,333.536560 
	C108.522049,329.947693 109.241531,326.379822 109.868851,322.399780 
	C112.874962,307.632599 116.968781,293.576569 122.219162,279.467834 
z"/>
<path fill="#ED85C6" opacity="1.000000" stroke="none" 
	d="
M361.762299,500.044556 
	C385.889526,501.677795 408.932587,498.633240 430.631775,487.889160 
	C433.890564,486.275635 437.059174,484.479950 440.562744,482.669556 
	C447.403778,489.322693 453.887970,496.137848 460.512878,502.813354 
	C473.018982,515.415039 485.776093,527.772888 498.074951,540.572205 
	C502.928833,545.623535 509.386414,549.366028 512.025146,556.782349 
	C506.308258,558.405518 501.214417,561.020447 496.330414,564.226318 
	C480.878632,574.369019 464.215118,582.018127 446.375824,587.966553 
	C440.389618,584.472961 436.397675,579.224670 431.818237,574.662781 
	C410.575348,553.501404 389.419769,532.251892 368.150604,511.116241 
	C366.376770,509.353516 364.687012,507.509033 363.019836,505.648010 
	C361.671997,504.143402 360.341858,502.562378 361.762299,500.044556 
z"/>
<path fill="#ED81BF" opacity="1.000000" stroke="none" 
	d="
M361.661011,499.567505 
	C361.423767,503.537201 364.741699,504.945435 366.694641,506.928223 
	C381.726715,522.190186 396.921356,537.292175 412.081940,552.427429 
	C423.240814,563.567566 434.428650,574.678711 445.574646,585.831726 
	C445.876068,586.133362 445.844452,586.767822 445.984283,587.600464 
	C431.221893,593.310913 415.887390,596.070801 400.344055,598.033447 
	C387.545441,599.649536 374.740082,599.000977 361.467346,598.752686 
	C357.979614,597.026123 356.185852,594.098816 353.844543,591.759521 
	C289.706573,527.678162 225.602310,463.563049 161.493988,399.452026 
	C159.492279,397.450226 157.332687,395.608063 155.199249,393.238953 
	C153.329071,384.112885 153.781296,375.128632 154.234756,366.221222 
	C155.283524,345.619629 158.697144,325.401672 165.795792,305.598145 
	C168.284286,305.422974 169.818451,306.700592 171.358398,308.253876 
	C196.349152,333.460999 221.514069,358.494476 246.612015,383.594757 
	C248.849152,385.832123 251.020111,388.110291 253.250671,390.738647 
	C260.845673,438.400970 286.119995,472.221924 330.510345,491.346497 
	C340.341583,495.582031 350.702301,498.045898 361.661011,499.567505 
z"/>
<path fill="#EC91E1" opacity="1.000000" stroke="none" 
	d="
M391.773376,155.206665 
	C420.254242,156.473755 447.282806,163.219284 472.563446,175.784332 
	C537.346619,207.983063 577.924561,259.557098 594.323303,330.063507 
	C596.627686,339.971008 597.812805,350.056213 598.599060,360.585449 
	C595.516113,363.427185 593.642334,361.010468 591.796692,359.246765 
	C581.584595,349.488159 571.729797,339.366791 561.737671,329.385773 
	C544.105347,311.773010 526.575928,294.055084 508.775574,276.614441 
	C505.458466,273.364349 503.826904,268.659821 499.184387,266.231384 
	C498.537079,266.046722 498.264954,265.908203 497.998871,265.401855 
	C494.938660,260.232086 489.750916,257.574646 485.797394,253.595352 
	C455.627686,223.229141 425.403168,192.915970 395.062714,162.719299 
	C393.110046,160.775925 390.766724,158.838440 391.773376,155.206665 
z"/>
<path fill="#ED7EB8" opacity="1.000000" stroke="none" 
	d="
M154.865784,393.451569 
	C157.434631,392.726013 158.887665,394.378632 160.430862,395.922058 
	C226.025589,461.527588 291.625092,527.128357 357.234894,592.718872 
	C358.784271,594.267700 360.213074,595.861450 360.940643,598.329590 
	C329.524017,596.567993 299.741974,588.165039 272.113373,573.078674 
	C212.734985,540.655396 175.332855,491.141449 159.383682,425.469299 
	C156.873962,415.135223 155.155777,404.593750 154.865784,393.451569 
z"/>
<path fill="#ED85C7" opacity="1.000000" stroke="none" 
	d="
M253.632050,390.363434 
	C251.257767,391.132782 249.983170,389.477539 248.584305,388.079071 
	C222.625458,362.126740 196.667770,336.173218 170.723648,310.206116 
	C169.320114,308.801361 168.037872,307.275391 166.359009,305.568542 
	C170.028610,291.251495 176.545883,278.274231 183.704636,265.608795 
	C189.575684,255.221512 196.253586,245.356537 204.140503,235.966583 
	C207.037430,234.812485 208.393539,236.881622 209.863327,238.303635 
	C218.323654,246.488831 226.592239,254.870178 234.876678,263.231842 
	C247.478516,275.951202 260.401917,288.351624 272.719543,301.352448 
	C273.627991,302.311249 274.639862,303.201019 275.265442,304.819580 
	C264.937958,320.919922 257.513458,337.912811 254.539230,356.723999 
	C252.795319,367.753693 252.379440,378.802826 253.632050,390.363434 
z"/>
<path fill="#ED89CF" opacity="1.000000" stroke="none" 
	d="
M275.676025,304.954163 
	C269.420593,302.032043 265.825348,296.311798 261.098511,291.838318 
	C251.411453,282.670471 242.063919,273.142853 232.611816,263.727997 
	C226.423767,257.564362 220.301346,251.334869 214.141998,245.142349 
	C211.129013,242.113159 208.098831,239.101059 204.731354,235.923294 
	C220.762115,215.075119 240.709518,198.535126 263.647278,185.024200 
	C269.653534,188.611221 273.753540,193.930542 278.427582,198.587967 
	C296.889618,216.984283 315.313202,235.420044 333.737213,253.855011 
	C335.122009,255.240646 336.764801,256.555084 336.319031,259.221619 
	C313.944550,267.593872 295.297607,280.771027 280.148682,298.907867 
	C278.613434,300.745880 277.340424,302.802948 275.676025,304.954163 
z"/>
<path fill="#ED8DD7" opacity="1.000000" stroke="none" 
	d="
M336.574585,259.473755 
	C330.691437,252.224960 323.618256,246.394455 317.273102,239.877365 
	C304.436432,226.692902 291.313416,213.786880 278.278809,200.795792 
	C274.284698,196.815002 270.222076,192.901489 266.127594,189.023941 
	C265.112823,188.062958 264.437073,187.001373 264.046997,185.331528 
	C283.784790,172.589539 305.368774,164.713394 328.441254,159.508621 
	C331.844513,161.104813 333.816071,163.863602 336.156555,166.200470 
	C365.928009,195.926025 395.689484,225.661652 425.380005,255.467972 
	C427.588074,257.684631 430.974609,259.586700 429.210754,263.977844 
	C414.092590,258.058899 398.815002,253.750656 382.662720,253.033539 
	C367.032410,252.339615 351.808502,254.513000 336.574585,259.473755 
z"/>
<path fill="#ED8FDC" opacity="1.000000" stroke="none" 
	d="
M429.147278,264.467590 
	C429.389832,261.234009 427.206970,259.716736 425.470825,257.979919 
	C394.704865,227.201797 363.925934,196.436676 333.174133,165.644424 
	C331.559937,164.028107 329.499878,162.704041 328.917511,159.843124 
	C349.422394,154.966415 370.198578,153.102112 391.618073,154.758453 
	C394.493530,162.058289 400.988831,165.763535 405.858124,170.789871 
	C418.827301,184.177277 432.135162,197.237228 445.344116,210.391479 
	C459.958344,224.945160 474.842957,239.239166 489.065125,254.165298 
	C492.115204,257.366364 496.706757,259.561798 497.938721,264.799316 
	C485.358459,256.109680 477.421295,255.675323 464.322906,264.186493 
	C458.635925,267.881866 456.960907,274.250519 455.797302,281.366699 
	C447.318695,274.818573 438.780090,269.043732 429.147278,264.467590 
z"/>
<path fill="#ED8FDC" opacity="1.000000" stroke="none" 
	d="
M499.004822,266.369080 
	C501.143311,265.746338 502.645264,267.012085 504.030518,268.535370 
	C518.693726,284.659912 534.639832,299.518463 549.940125,315.014282 
	C564.658264,329.920410 579.544006,344.661133 594.308411,359.521881 
	C595.357117,360.577393 596.447083,361.004425 598.184570,360.986206 
	C599.114746,370.515778 598.969421,379.978363 598.360962,389.549988 
	C597.845093,397.664490 597.276917,405.865723 597.190369,414.042328 
	C597.126099,420.112244 595.262085,425.718445 592.882446,431.620789 
	C589.121094,434.354248 587.176392,431.392548 585.134460,429.421509 
	C575.067749,419.704346 565.261963,409.721405 555.363831,399.833405 
	C539.456665,383.942413 523.596497,368.004181 507.668823,352.133484 
	C505.901581,350.372559 504.187378,348.548401 502.462463,346.266296 
	C503.199097,326.219147 504.102264,306.440765 505.162354,286.670807 
	C505.561798,279.221252 504.084503,272.464203 499.004822,266.369080 
z"/>
<path fill="#EC8CD5" opacity="1.000000" stroke="none" 
	d="
M502.136047,346.444244 
	C507.246490,346.045074 508.821533,350.805664 511.587494,353.481964 
	C528.871521,370.205597 545.697388,387.402649 562.678467,404.439453 
	C571.053223,412.841736 579.458435,421.213989 587.788940,429.659882 
	C589.017822,430.905731 590.271545,431.826630 592.382019,431.975037 
	C582.841187,452.828308 559.712158,463.790283 536.539490,458.624146 
	C515.325134,453.894592 498.535736,433.252563 499.023499,411.138763 
	C499.496063,389.712189 500.992065,368.308228 502.136047,346.444244 
z"/>
<path fill="#ED87CC" opacity="1.000000" stroke="none" 
	d="
M434.091003,422.722351 
	C425.709717,434.754913 413.536041,441.239471 400.364563,446.832397 
	C397.866943,446.093567 396.456451,444.423645 394.931580,442.898193 
	C367.075409,415.030518 339.205933,387.176147 311.356201,359.302032 
	C309.608154,357.552429 307.564362,356.008820 306.655457,353.155975 
	C310.426300,339.687531 318.230713,329.151001 328.756592,320.130005 
	C332.529999,319.444824 334.105377,322.199371 336.018585,324.107819 
	C366.537354,354.550568 397.014862,385.034698 427.469025,415.542114 
	C429.692322,417.769379 432.271454,419.671539 434.091003,422.722351 
z"/>
<path fill="#ED89CF" opacity="1.000000" stroke="none" 
	d="
M434.480896,422.896484 
	C431.565521,422.830902 430.248444,420.718048 428.635437,419.106995 
	C397.071075,387.580780 365.531952,356.029236 333.980835,324.489716 
	C332.570160,323.079529 331.094879,321.733948 329.365906,320.196411 
	C337.377716,312.285461 347.290710,307.633606 358.568970,304.860870 
	C360.487610,305.301422 361.475342,306.444672 362.536163,307.506927 
	C390.437866,335.446228 418.267426,363.457764 446.345062,391.220886 
	C447.063324,391.931091 447.606689,392.767181 448.405701,393.855530 
	C446.203156,404.750580 440.767700,413.873627 434.480896,422.896484 
z"/>
<path fill="#EC85C7" opacity="1.000000" stroke="none" 
	d="
M306.312195,353.136047 
	C307.801483,353.854523 309.216370,354.753479 310.374390,355.909760 
	C339.322571,384.813324 368.247833,413.739838 397.152832,442.686584 
	C398.188141,443.723450 398.976013,445.007324 399.940002,446.504700 
	C364.497223,460.803223 320.819763,439.934021 307.032562,402.350342 
	C301.099030,386.175537 300.881012,369.844666 306.312195,353.136047 
z"/>
<path fill="#EC8AD1" opacity="1.000000" stroke="none" 
	d="
M448.752960,393.813171 
	C446.383972,394.044891 445.032776,392.536469 443.615112,391.118530 
	C416.299530,363.797455 388.979401,336.480927 361.666351,309.157318 
	C360.616028,308.106567 359.402222,307.156555 359.018768,305.226929 
	C385.107391,298.384888 408.244080,304.657745 427.570312,322.870026 
	C447.932465,342.058502 454.374390,366.133667 448.752960,393.813171 
z"/>
</svg>